<?xml version="1.0" encoding="UTF-8"?>
<svg id="Layer_1" xmlns="http://www.w3.org/2000/svg" version="1.1" viewBox="0 0 1024 1024">
  <!-- Generator: Adobe Illustrator 29.0.0, SVG Export Plug-In . SVG Version: 2.1.0 Build 186)  -->
  <defs>
    <style>
      .st0 {
        fill: #3bf9ff;
      }

      .st1 {
        fill: none;
        stroke: #005e07;
        stroke-miterlimit: 10;
        stroke-width: 80px;
      }
    </style>
  </defs>
  <circle class="st1" cx="512" cy="512" r="462.5"/>
  <g>
    <path class="st0" d="M776,872.8c-76.8,11.7-153.6,11.7-230.5,0l-17.6-208.8h-146.4l-47.8,208.8c-76.8,11.7-153.6,11.7-230.5,0L353.5,79.4c95.5-11.7,192.1-11.7,287.6,0l135,793.4ZM407.5,547.2h110l-12.5-140c-6.2-67.7-15.6-114.3-12.5-208.8l-10.4,1.2c-11.4,89.8-27,142.3-43.6,211.2l-31.1,136.5Z"/>
    <path class="st0" d="M923,288c-17.7-.6-49.8-1.1-87.9-1.1-1.7,28.2-3.9,56.9-5,82.4-22.1,5-45.3,5-67.4.6,1.7-16.6,4.4-47,7.2-82.9-30.4,0-60.8.6-88.5,1.1-4.4-22.1-3.3-45.3,5-67.4,16.6.6,49.2,1.1,87.9,1.1,1.7-28.2,3.3-56.9,5-82.4,22.1-5,45.3-5,67.4-.6-1.7,15.5-4.4,46.4-7.2,82.9,30.4,0,60.8-.6,88.5-1.1,4.4,22.1,3.3,45.3-5,67.4Z"/>
  </g>
</svg>